<mxfile host="65bd71144e">
    <diagram id="PuXvCcuPxR5FeGInxbdS" name="Page-1">
        <mxGraphModel dx="777" dy="543" grid="1" gridSize="10" guides="1" tooltips="1" connect="1" arrows="1" fold="1" page="1" pageScale="1" pageWidth="850" pageHeight="1100" math="0" shadow="0">
            <root>
                <mxCell id="0"/>
                <mxCell id="1" parent="0"/>
                <mxCell id="129" value="" style="endArrow=none;html=1;dashed=1;strokeWidth=2;" edge="1" parent="1">
                    <mxGeometry width="50" height="50" relative="1" as="geometry">
                        <mxPoint x="10" y="220" as="sourcePoint"/>
                        <mxPoint x="580" y="220" as="targetPoint"/>
                    </mxGeometry>
                </mxCell>
                <mxCell id="126" value="" style="shape=note;whiteSpace=wrap;html=1;backgroundOutline=1;darkOpacity=0.05;" parent="1" vertex="1">
                    <mxGeometry x="650" y="150" width="150" height="215" as="geometry"/>
                </mxCell>
                <mxCell id="100" value="" style="endArrow=none;html=1;shadow=0;fontFamily=DejaVu Sans;fontSize=15;entryX=0;entryY=0.5;entryDx=0;entryDy=0;" parent="1" target="104" edge="1">
                    <mxGeometry width="50" height="50" relative="1" as="geometry">
                        <mxPoint x="120" y="179.82999999999998" as="sourcePoint"/>
                        <mxPoint x="250" y="210" as="targetPoint"/>
                    </mxGeometry>
                </mxCell>
                <mxCell id="62" value="" style="endArrow=none;html=1;shadow=0;fontFamily=DejaVu Sans;fontSize=15;entryX=0;entryY=0.5;entryDx=0;entryDy=0;" parent="1" target="113" edge="1">
                    <mxGeometry width="50" height="50" relative="1" as="geometry">
                        <mxPoint x="120" y="260" as="sourcePoint"/>
                        <mxPoint x="440" y="260" as="targetPoint"/>
                    </mxGeometry>
                </mxCell>
                <mxCell id="58" style="edgeStyle=none;html=1;shadow=0;fontFamily=DejaVu Sans;fontSize=15;entryX=0.5;entryY=0;entryDx=0;entryDy=0;exitX=1;exitY=0.5;exitDx=0;exitDy=0;" parent="1" source="64" target="109" edge="1">
                    <mxGeometry relative="1" as="geometry">
                        <Array as="points">
                            <mxPoint x="435" y="180"/>
                        </Array>
                        <mxPoint x="410" y="180" as="sourcePoint"/>
                        <mxPoint x="430" y="300" as="targetPoint"/>
                    </mxGeometry>
                </mxCell>
                <mxCell id="63" value="" style="rounded=0;whiteSpace=wrap;html=1;strokeWidth=1;fontFamily=Helvetica;fontSize=15;align=center;spacing=0;horizontal=0;shadow=0;" parent="1" vertex="1">
                    <mxGeometry x="130" y="160" width="50" height="110" as="geometry"/>
                </mxCell>
                <mxCell id="64" value="&lt;i style=&quot;font-size: 15px;&quot;&gt;m&lt;/i&gt;" style="text;html=1;strokeColor=none;fillColor=none;align=center;verticalAlign=middle;whiteSpace=wrap;rounded=0;fontFamily=Helvetica;fontSize=15;spacing=0;shadow=0;" parent="1" vertex="1">
                    <mxGeometry x="380" y="170" width="20" height="20" as="geometry"/>
                </mxCell>
                <mxCell id="65" value="Bob qubit 1" style="text;html=1;strokeColor=none;fillColor=none;align=left;verticalAlign=middle;whiteSpace=wrap;rounded=0;fontFamily=Helvetica;fontSize=15;spacing=0;shadow=0;" parent="1" vertex="1">
                    <mxGeometry x="30" y="245" width="80" height="20" as="geometry"/>
                </mxCell>
                <mxCell id="66" value="Alice qubit 1" style="text;html=1;strokeColor=none;fillColor=none;align=left;verticalAlign=middle;whiteSpace=wrap;rounded=0;fontFamily=Helvetica;fontSize=15;spacing=0;shadow=0;" parent="1" vertex="1">
                    <mxGeometry x="27.5" y="170" width="82.5" height="20" as="geometry"/>
                </mxCell>
                <mxCell id="77" value="" style="endArrow=none;html=1;exitX=1;exitY=0.5;exitDx=0;exitDy=0;shape=link;shadow=0;fontFamily=DejaVu Sans;fontSize=15;" parent="1" edge="1">
                    <mxGeometry width="50" height="50" relative="1" as="geometry">
                        <mxPoint x="350" y="179.83" as="sourcePoint"/>
                        <mxPoint x="375" y="179.83" as="targetPoint"/>
                    </mxGeometry>
                </mxCell>
                <mxCell id="95" value="&lt;span style=&quot;color: rgb(0, 0, 0); font-family: Helvetica; font-size: 15px; font-style: normal; font-variant-ligatures: normal; font-variant-caps: normal; font-weight: 400; letter-spacing: normal; orphans: 2; text-align: center; text-indent: 0px; text-transform: none; widows: 2; word-spacing: 0px; -webkit-text-stroke-width: 0px; background-color: rgb(255, 255, 255); text-decoration-thickness: initial; text-decoration-style: initial; text-decoration-color: initial; float: none; display: inline !important;&quot;&gt;Entangle&lt;/span&gt;" style="text;html=1;strokeColor=none;fillColor=none;align=center;verticalAlign=middle;whiteSpace=wrap;rounded=0;fontFamily=Helvetica;horizontal=0;" parent="1" vertex="1">
                    <mxGeometry x="145" y="160" width="20" height="110" as="geometry"/>
                </mxCell>
                <mxCell id="96" value="Bob qubit 2" style="text;html=1;strokeColor=none;fillColor=none;align=left;verticalAlign=middle;whiteSpace=wrap;rounded=0;fontFamily=Helvetica;fontSize=15;spacing=0;shadow=0;" parent="1" vertex="1">
                    <mxGeometry x="27.5" y="300" width="80" height="20" as="geometry"/>
                </mxCell>
                <mxCell id="97" value="" style="endArrow=none;html=1;exitX=1;exitY=0.5;exitDx=0;exitDy=0;entryX=0;entryY=0.5;entryDx=0;entryDy=0;shadow=0;fontFamily=DejaVu Sans;fontSize=15;" parent="1" target="119" edge="1">
                    <mxGeometry width="50" height="50" relative="1" as="geometry">
                        <mxPoint x="120" y="309.83" as="sourcePoint"/>
                        <mxPoint x="680.5" y="309.83" as="targetPoint"/>
                    </mxGeometry>
                </mxCell>
                <mxCell id="98" value="&lt;i style=&quot;font-size: 14px;&quot;&gt;R&lt;sub style=&quot;font-size: 14px;&quot;&gt;X&lt;/sub&gt;(π)&lt;/i&gt;" style="rounded=0;whiteSpace=wrap;html=1;strokeWidth=1;fontFamily=Helvetica;fontSize=14;align=center;spacing=0;horizontal=1;shadow=0;" parent="1" vertex="1">
                    <mxGeometry x="200" y="240" width="50" height="40" as="geometry"/>
                </mxCell>
                <mxCell id="99" value="&lt;i style=&quot;font-size: 14px;&quot;&gt;R&lt;sub style=&quot;font-size: 14px;&quot;&gt;X&lt;/sub&gt;(π)&lt;/i&gt;" style="rounded=0;whiteSpace=wrap;html=1;strokeWidth=1;fontFamily=Helvetica;fontSize=14;align=center;spacing=0;horizontal=1;shadow=0;" parent="1" vertex="1">
                    <mxGeometry x="200" y="160" width="50" height="40" as="geometry"/>
                </mxCell>
                <mxCell id="101" value="" style="group;shadow=0;fontFamily=DejaVu Sans;fontSize=15;" parent="1" vertex="1" connectable="0">
                    <mxGeometry x="300" y="160" width="55" height="48.5" as="geometry"/>
                </mxCell>
                <mxCell id="102" value="" style="group;shadow=0;fontFamily=DejaVu Sans;fontSize=15;" parent="101" vertex="1" connectable="0">
                    <mxGeometry width="50" height="48.5" as="geometry"/>
                </mxCell>
                <mxCell id="103" value="" style="group;shadow=0;fontFamily=DejaVu Sans;fontSize=15;" parent="102" vertex="1" connectable="0">
                    <mxGeometry width="50" height="48.5" as="geometry"/>
                </mxCell>
                <mxCell id="104" value="" style="rounded=0;whiteSpace=wrap;html=1;strokeWidth=1;fontFamily=DejaVu Sans;fontSize=15;align=center;spacing=0;horizontal=1;shadow=0;" parent="103" vertex="1">
                    <mxGeometry width="50" height="40" as="geometry"/>
                </mxCell>
                <mxCell id="105" value="" style="verticalLabelPosition=bottom;verticalAlign=top;html=1;shape=mxgraph.basic.arc;startAngle=0.7547732166712652;endAngle=0.24188688466388786;shadow=0;fontFamily=DejaVu Sans;fontSize=15;" parent="103" vertex="1">
                    <mxGeometry x="9.25" y="17.54255319148936" width="31.49999999999999" height="30.95744680851064" as="geometry"/>
                </mxCell>
                <mxCell id="106" value="" style="endArrow=classic;html=1;shadow=0;fontFamily=DejaVu Sans;fontSize=15;" parent="103" edge="1">
                    <mxGeometry width="50" height="50" relative="1" as="geometry">
                        <mxPoint x="22.999999999999996" y="32.50531914893617" as="sourcePoint"/>
                        <mxPoint x="34.699999999999996" y="4.127659574468085" as="targetPoint"/>
                    </mxGeometry>
                </mxCell>
                <mxCell id="108" value="CNOT" style="rounded=0;whiteSpace=wrap;html=1;strokeWidth=1;fontFamily=Helvetica;fontSize=14;align=center;spacing=0;horizontal=0;shadow=0;" parent="1" vertex="1">
                    <mxGeometry x="270" y="230" width="50" height="100" as="geometry"/>
                </mxCell>
                <mxCell id="109" value="&lt;i style=&quot;font-size: 14px;&quot;&gt;R&lt;sub style=&quot;font-size: 14px;&quot;&gt;X&lt;/sub&gt;(m)&lt;/i&gt;" style="rounded=0;whiteSpace=wrap;html=1;strokeWidth=1;fontFamily=Helvetica;fontSize=14;align=center;spacing=0;horizontal=1;shadow=0;" parent="1" vertex="1">
                    <mxGeometry x="410" y="290" width="50" height="40" as="geometry"/>
                </mxCell>
                <mxCell id="110" value="" style="group;shadow=0;fontFamily=DejaVu Sans;fontSize=15;" parent="1" vertex="1" connectable="0">
                    <mxGeometry x="490" y="240" width="55" height="48.5" as="geometry"/>
                </mxCell>
                <mxCell id="111" value="" style="group;shadow=0;fontFamily=DejaVu Sans;fontSize=15;" parent="110" vertex="1" connectable="0">
                    <mxGeometry width="50" height="48.5" as="geometry"/>
                </mxCell>
                <mxCell id="112" value="" style="group;shadow=0;fontFamily=DejaVu Sans;fontSize=15;" parent="111" vertex="1" connectable="0">
                    <mxGeometry width="50" height="48.5" as="geometry"/>
                </mxCell>
                <mxCell id="113" value="" style="rounded=0;whiteSpace=wrap;html=1;strokeWidth=1;fontFamily=DejaVu Sans;fontSize=15;align=center;spacing=0;horizontal=1;shadow=0;" parent="112" vertex="1">
                    <mxGeometry width="50" height="40" as="geometry"/>
                </mxCell>
                <mxCell id="114" value="" style="verticalLabelPosition=bottom;verticalAlign=top;html=1;shape=mxgraph.basic.arc;startAngle=0.7547732166712652;endAngle=0.24188688466388786;shadow=0;fontFamily=DejaVu Sans;fontSize=15;" parent="112" vertex="1">
                    <mxGeometry x="9.25" y="17.54255319148936" width="31.49999999999999" height="30.95744680851064" as="geometry"/>
                </mxCell>
                <mxCell id="115" value="" style="endArrow=classic;html=1;shadow=0;fontFamily=DejaVu Sans;fontSize=15;" parent="112" edge="1">
                    <mxGeometry width="50" height="50" relative="1" as="geometry">
                        <mxPoint x="22.999999999999996" y="32.50531914893617" as="sourcePoint"/>
                        <mxPoint x="34.699999999999996" y="4.127659574468085" as="targetPoint"/>
                    </mxGeometry>
                </mxCell>
                <mxCell id="122" value="" style="endArrow=none;html=1;exitX=1;exitY=0.5;exitDx=0;exitDy=0;shape=link;shadow=0;fontFamily=DejaVu Sans;fontSize=15;" parent="110" edge="1">
                    <mxGeometry width="50" height="50" relative="1" as="geometry">
                        <mxPoint x="50" y="19.710000000000036" as="sourcePoint"/>
                        <mxPoint x="75" y="19.710000000000036" as="targetPoint"/>
                    </mxGeometry>
                </mxCell>
                <mxCell id="116" value="" style="group;shadow=0;fontFamily=DejaVu Sans;fontSize=15;" parent="1" vertex="1" connectable="0">
                    <mxGeometry x="490" y="290" width="55" height="48.5" as="geometry"/>
                </mxCell>
                <mxCell id="117" value="" style="group;shadow=0;fontFamily=DejaVu Sans;fontSize=15;" parent="116" vertex="1" connectable="0">
                    <mxGeometry width="50" height="48.5" as="geometry"/>
                </mxCell>
                <mxCell id="118" value="" style="group;shadow=0;fontFamily=DejaVu Sans;fontSize=15;" parent="117" vertex="1" connectable="0">
                    <mxGeometry width="50" height="48.5" as="geometry"/>
                </mxCell>
                <mxCell id="119" value="" style="rounded=0;whiteSpace=wrap;html=1;strokeWidth=1;fontFamily=DejaVu Sans;fontSize=15;align=center;spacing=0;horizontal=1;shadow=0;" parent="118" vertex="1">
                    <mxGeometry width="50" height="40" as="geometry"/>
                </mxCell>
                <mxCell id="120" value="" style="verticalLabelPosition=bottom;verticalAlign=top;html=1;shape=mxgraph.basic.arc;startAngle=0.7547732166712652;endAngle=0.24188688466388786;shadow=0;fontFamily=DejaVu Sans;fontSize=15;" parent="118" vertex="1">
                    <mxGeometry x="9.25" y="17.54255319148936" width="31.49999999999999" height="30.95744680851064" as="geometry"/>
                </mxCell>
                <mxCell id="121" value="" style="endArrow=classic;html=1;shadow=0;fontFamily=DejaVu Sans;fontSize=15;" parent="118" edge="1">
                    <mxGeometry width="50" height="50" relative="1" as="geometry">
                        <mxPoint x="22.999999999999996" y="32.50531914893617" as="sourcePoint"/>
                        <mxPoint x="34.699999999999996" y="4.127659574468085" as="targetPoint"/>
                    </mxGeometry>
                </mxCell>
                <mxCell id="123" value="" style="endArrow=none;html=1;exitX=1;exitY=0.5;exitDx=0;exitDy=0;shape=link;shadow=0;fontFamily=DejaVu Sans;fontSize=15;" parent="1" edge="1">
                    <mxGeometry width="50" height="50" relative="1" as="geometry">
                        <mxPoint x="540" y="309.71000000000004" as="sourcePoint"/>
                        <mxPoint x="565" y="309.71000000000004" as="targetPoint"/>
                    </mxGeometry>
                </mxCell>
                <mxCell id="124" value="q1 = Entangle(Bob)&lt;div&gt;&lt;br&gt;&lt;/div&gt;&lt;div&gt;q1.rot_x(pi)&lt;/div&gt;&lt;div&gt;m = measure(q1)&lt;/div&gt;&lt;div&gt;&lt;br&gt;&lt;/div&gt;&lt;div&gt;send(m, Bob)&lt;/div&gt;" style="text;html=1;align=left;verticalAlign=top;whiteSpace=wrap;rounded=0;fontFamily=Courier New;" parent="1" vertex="1">
                    <mxGeometry x="660" y="175" width="140" height="120" as="geometry"/>
                </mxCell>
                <mxCell id="127" value="" style="shape=note;whiteSpace=wrap;html=1;backgroundOutline=1;darkOpacity=0.05;" parent="1" vertex="1">
                    <mxGeometry x="850" y="150" width="160" height="215" as="geometry"/>
                </mxCell>
                <mxCell id="128" value="q1 = Entangle(Alice)&lt;div&gt;q2 = Qubit()&lt;br&gt;&lt;div&gt;&lt;br&gt;&lt;/div&gt;&lt;div&gt;q1.rot_x(pi)&lt;/div&gt;&lt;div&gt;q1.cnot(q2)&lt;/div&gt;&lt;div&gt;&lt;br&gt;&lt;/div&gt;&lt;div&gt;m = receive(Alice)&lt;/div&gt;&lt;div&gt;&lt;br&gt;&lt;/div&gt;&lt;div&gt;q2.rot_x(m)&lt;/div&gt;&lt;/div&gt;&lt;div&gt;&lt;br&gt;&lt;/div&gt;&lt;div&gt;measure(q1)&lt;/div&gt;&lt;div&gt;measure(q2)&lt;/div&gt;" style="text;html=1;align=left;verticalAlign=top;whiteSpace=wrap;rounded=0;fontFamily=Courier New;" parent="1" vertex="1">
                    <mxGeometry x="860" y="175" width="160" height="190" as="geometry"/>
                </mxCell>
                <mxCell id="130" value="Alice program" style="text;html=1;strokeColor=none;fillColor=none;align=center;verticalAlign=middle;whiteSpace=wrap;rounded=0;fontSize=16;" vertex="1" parent="1">
                    <mxGeometry x="665" y="115" width="120" height="30" as="geometry"/>
                </mxCell>
                <mxCell id="131" value="Bob program" style="text;html=1;strokeColor=none;fillColor=none;align=center;verticalAlign=middle;whiteSpace=wrap;rounded=0;fontSize=16;" vertex="1" parent="1">
                    <mxGeometry x="870" y="115" width="120" height="30" as="geometry"/>
                </mxCell>
            </root>
        </mxGraphModel>
    </diagram>
</mxfile>